<?xml version="1.0"?><svg viewBox="0 0 340 340" xmlns="http://www.w3.org/2000/svg"><path d="M152.57 217.2M53.83 217.2C53.83 271.73 98.03 315.94 152.57 315.94 207.1 315.94 251.31 271.73 251.31 217.2 251.31 162.66 207.1 118.46 152.57 118.46 98.03 118.46 53.83 162.66 53.83 217.2Z" style="fill:#ffeb43"/><path d="M152.57 318.41C96.76 318.41 51.36 273.01 51.36 217.2 51.36 161.39 96.76 115.98 152.57 115.98 208.38 115.98 253.78 161.39 253.78 217.2 253.78 273.01 208.38 318.41 152.57 318.41ZM152.57 120.93C99.49 120.93 56.3 164.11 56.3 217.2 56.3 270.28 99.49 313.47 152.57 313.47 205.65 313.47 248.84 270.28 248.84 217.2 248.84 164.11 205.65 120.93 152.57 120.93Z" style="fill:#6b0204"/><path d="M113.58 234.56M103.62 234.56C103.62 240.06 108.08 244.52 113.58 244.52 119.07 244.52 123.53 240.06 123.53 234.56 123.53 229.06 119.07 224.61 113.58 224.61 108.08 224.61 103.62 229.06 103.62 234.56Z" style="fill:#ffeb43"/><path d="M113.58 246.58C106.95 246.58 101.56 241.19 101.56 234.56 101.56 227.94 106.95 222.55 113.58 222.55 120.2 222.55 125.59 227.94 125.59 234.56 125.59 241.19 120.2 246.58 113.58 246.58ZM113.58 226.67C109.22 226.67 105.69 230.2 105.68 234.56 105.69 238.92 109.22 242.45 113.58 242.46 117.93 242.45 121.46 238.92 121.47 234.56 121.46 230.2 117.93 226.67 113.58 226.67Z" style="fill:#6b0306"/><path d="M90.79 179.31M84.48 179.31C84.48 181.56 85.69 183.64 87.64 184.77 89.59 185.89 91.99 185.89 93.94 184.77 95.89 183.64 97.09 181.56 97.09 179.31 97.09 177.06 95.89 174.98 93.94 173.85 91.99 172.72 89.59 172.72 87.64 173.85 85.69 174.98 84.48 177.06 84.48 179.31Z" style="fill:#ffeb43"/><path d="M90.79 187.67C86.17 187.67 82.42 183.92 82.42 179.31 82.42 174.7 86.17 170.94 90.79 170.94 95.4 170.94 99.15 174.7 99.15 179.31 99.15 183.92 95.4 187.67 90.79 187.67ZM90.79 175.07C88.45 175.07 86.55 176.97 86.54 179.31 86.54 181.65 88.45 183.55 90.79 183.55 93.13 183.55 95.03 181.65 95.03 179.31 95.03 176.97 93.13 175.07 90.79 175.07Z" style="fill:#6b0306"/><path d="M170.37 223.25M166.25 223.25C166.25 224.72 167.04 226.08 168.31 226.82 169.59 227.55 171.16 227.55 172.43 226.82 173.7 226.08 174.49 224.72 174.49 223.25 174.49 221.78 173.7 220.42 172.43 219.69 171.16 218.95 169.59 218.95 168.31 219.69 167.04 220.42 166.25 221.78 166.25 223.25Z" style="fill:#ffeb43"/><path d="M170.37 229.43C166.96 229.42 164.2 226.66 164.19 223.25 164.2 219.84 166.96 217.08 170.37 217.07 173.78 217.08 176.54 219.84 176.55 223.25 176.55 226.66 173.78 229.43 170.37 229.43ZM170.37 221.2C169.64 221.2 168.96 221.59 168.59 222.23 168.22 222.86 168.22 223.65 168.59 224.28 168.96 224.92 169.64 225.31 170.37 225.31 171.51 225.31 172.43 224.39 172.43 223.26 172.43 222.12 171.51 221.2 170.37 221.2Z" style="fill:#6b0306"/><path d="M132.18 151.34M128.46 151.34C128.46 153.4 130.13 155.06 132.18 155.06 134.24 155.06 135.91 153.4 135.91 151.34 135.91 149.28 134.24 147.62 132.18 147.62 130.13 147.62 128.46 149.28 128.46 151.34Z" style="fill:#ffeb43"/><path d="M132.18 157.13C129 157.13 126.4 154.53 126.4 151.34 126.4 148.15 129 145.56 132.18 145.56 135.37 145.56 137.97 148.15 137.97 151.34 137.97 154.53 135.37 157.13 132.18 157.13ZM132.18 149.68C131.59 149.68 131.04 150 130.75 150.51 130.45 151.02 130.45 151.66 130.75 152.17 131.04 152.69 131.59 153 132.18 153 133.1 153 133.85 152.26 133.85 151.34 133.85 150.42 133.1 149.68 132.18 149.68Z" style="fill:#6b0306"/><path d="M194.8 164.54C194.27 163.08 192.97 162.02 191.43 161.81L181.15 160.31 176.69 151.18C175.99 149.75 174.5 148.84 172.88 148.84 171.26 148.84 169.76 149.76 169.06 151.18L164.6 160.31 154.32 161.81C152.77 162.02 151.47 163.07 150.95 164.54 150.43 166.02 150.82 167.66 151.95 168.74L159.49 176.17 157.74 186.46C157.48 188 158.17 189.59 159.5 190.5 160.77 191.36 162.56 191.46 163.93 190.73L172.88 185.99 181.83 190.74C183.24 191.48 184.94 191.39 186.27 190.5 187.59 189.59 188.27 188.01 188.01 186.47L186.26 176.18 193.81 168.75C194.93 167.66 195.32 166.02 194.8 164.54Z" style="fill:#ffc700"/><path d="M183.85 193.3C182.81 193.3 181.79 193.04 180.87 192.56L172.88 188.32 164.9 192.55C162.89 193.6 160.2 193.46 158.34 192.2 156.34 190.83 155.31 188.44 155.71 186.11L157.28 176.89 150.5 170.21C148.81 168.57 148.22 166.09 149.01 163.86 149.78 161.67 151.72 160.09 154.03 159.77L163.23 158.43 167.21 150.27C168.26 148.15 170.48 146.78 172.88 146.78 175.28 146.78 177.5 148.15 178.54 150.27L182.53 158.43 191.73 159.77C194.03 160.09 195.96 161.67 196.74 163.85 197.53 166.08 196.95 168.57 195.25 170.22L188.48 176.89 190.05 186.12C190.44 188.45 189.41 190.83 187.43 192.19 186.38 192.91 185.13 193.3 183.85 193.3ZM172.88 183.65L182.8 188.91C183.53 189.29 184.43 189.24 185.11 188.79 185.76 188.34 186.11 187.56 185.98 186.81L184.05 175.46 192.36 167.28C192.92 166.73 193.11 165.95 192.85 165.22 192.58 164.48 191.91 163.95 191.13 163.85L179.78 162.18 174.84 152.08C174.14 150.65 171.62 150.64 170.91 152.08L165.97 162.18 154.62 163.85C153.83 163.95 153.17 164.48 152.9 165.22 152.64 165.95 152.83 166.72 153.39 167.27L161.7 175.45 159.78 186.8C159.65 187.56 160 188.34 160.66 188.8 161.27 189.2 162.28 189.26 162.97 188.9L172.88 183.65Z" style="fill:#6b0204"/><path d="M183.82 126.61C214.74 142.46 227.83 179.5 223.71 216.4 214.72 296.93 119.43 305.62 109.88 302.42 123.35 309.33 138.27 312.93 153.42 312.91 206.23 312.91 249.05 270.09 249.05 217.28 249.05 175.1 221.72 139.32 183.82 126.61Z" style="fill:#ffc700"/><path d="M226.8 212.74M218.57 212.74C218.57 215.68 220.14 218.4 222.69 219.87 225.23 221.34 228.37 221.34 230.92 219.87 233.47 218.4 235.04 215.68 235.04 212.74 235.04 209.8 233.47 207.08 230.92 205.61 228.37 204.14 225.23 204.14 222.69 205.61 220.14 207.08 218.57 209.8 218.57 212.74Z" style="fill:#ffeb43"/><path d="M226.8 223.04C221.13 223.04 216.51 218.42 216.51 212.74 216.51 207.06 221.13 202.44 226.8 202.44 232.48 202.44 237.1 207.06 237.1 212.74 237.1 218.42 232.48 223.04 226.8 223.04ZM226.8 206.57C223.39 206.57 220.63 209.33 220.63 212.74 220.63 216.15 223.39 218.91 226.8 218.92 230.21 218.91 232.97 216.15 232.98 212.74 232.97 209.33 230.21 206.57 226.8 206.57Z" style="fill:#6b0306"/><path d="M132.65 95.9C141.07 94.04 149.8 92.98 158.78 92.98 225.47 92.98 279.53 147.04 279.53 213.73 279.53 250.8 262.8 283.92 236.51 306.07L239.87 312.88C268.55 289.38 286.87 253.7 286.87 213.73 286.87 142.99 229.52 85.65 158.78 85.65 148.85 85.65 138.95 86.81 129.29 89.09L132.65 95.9Z" style="fill:#6b0204"/><path d="M117.96 81.17M91.8 81.17C91.8 90.52 96.79 99.15 104.88 103.82 112.97 108.5 122.94 108.5 131.04 103.82 139.13 99.15 144.11 90.52 144.11 81.17 144.11 66.73 132.4 55.02 117.96 55.02 103.51 55.02 91.8 66.73 91.8 81.17Z" style="fill:#ffeb43"/><path d="M117.96 109.8C102.17 109.8 89.33 96.96 89.33 81.17 89.33 65.39 102.17 52.55 117.96 52.55 133.75 52.55 146.59 65.39 146.59 81.17 146.59 96.96 133.75 109.8 117.96 109.8ZM117.96 57.49C104.9 57.49 94.27 68.11 94.27 81.17 94.27 94.23 104.9 104.86 117.96 104.86 131.02 104.86 141.64 94.23 141.64 81.17 141.64 68.11 131.02 57.49 117.96 57.49Z" style="fill:#6b0204"/><path d="M125.62 58.68C133.29 62.57 136.53 71.68 135.51 80.76 133.28 100.57 109.64 102.71 107.27 101.92 110.62 103.62 114.32 104.5 118.07 104.5 131.18 104.5 141.8 93.97 141.8 80.98 141.8 70.6 135.02 61.8 125.62 58.68Z" style="fill:#ffc700"/><path d="M314.57 173.61M301.62 173.61C301.62 178.24 304.09 182.52 308.1 184.83 312.11 187.14 317.04 187.14 321.05 184.83 325.06 182.52 327.53 178.24 327.53 173.61 327.53 168.99 325.06 164.71 321.05 162.4 317.04 160.08 312.11 160.08 308.1 162.4 304.09 164.71 301.62 168.99 301.62 173.61Z" style="fill:#ffc700"/><path d="M314.57 189.03C306.07 189.03 299.15 182.12 299.15 173.61 299.15 165.11 306.07 158.19 314.57 158.19 323.08 158.19 330 165.11 330 173.61 330 182.12 323.08 189.03 314.57 189.03ZM314.57 163.13C308.79 163.14 304.1 167.83 304.1 173.61 304.1 179.4 308.79 184.08 314.57 184.09 320.36 184.09 325.06 179.39 325.06 173.61 325.05 167.83 320.36 163.14 314.57 163.13Z" style="fill:#6c0000"/><path d="M23.31 155.52M13.59 155.52C13.59 160.88 17.94 165.23 23.31 165.23 28.67 165.23 33.02 160.88 33.02 155.52 33.02 150.15 28.67 145.8 23.31 145.8 17.94 145.8 13.59 150.15 13.59 155.52Z" style="fill:#6c0000"/><path d="M242.19 304.2M232.48 304.2C232.48 309.57 236.82 313.92 242.19 313.92 247.55 313.92 251.9 309.57 251.9 304.2 251.9 298.84 247.55 294.49 242.19 294.49 236.82 294.49 232.48 298.84 232.48 304.2Z" style="fill:#6c0000"/><path d="M258.82 88.02M249.1 88.02C249.1 93.38 253.45 97.73 258.82 97.73 264.18 97.73 268.53 93.38 268.53 88.02 268.53 82.66 264.18 78.31 258.82 78.31 253.45 78.31 249.1 82.66 249.1 88.02Z" style="fill:#6c0000"/></svg>
