<?xml version="1.0"?><svg viewBox="0 0 340 340" xmlns="http://www.w3.org/2000/svg"><path d="M80.74 109.44C29 191.56 89.4 272.17 89.4 272.17 89.4 272.17 115.38 268.17 151.55 225.16 187.71 182.14 80.74 109.44 80.74 109.44ZM273.67 109.44C325.41 191.56 265.01 272.17 265.01 272.17 265.01 272.17 239.03 268.17 202.86 225.16 166.69 182.14 273.67 109.44 273.67 109.44Z" style="fill:#662113"/><path d="M152.03 295.28C150.92 293.34 149.25 291.77 147.23 290.8 128.86 271.16 141.9 248.16 141.9 248.16 141.9 241.8 153.39 225.16 141.9 225.16L130.4 236.66C118.9 248.15 118.9 282.66 118.9 282.66H95.91C89.56 282.66 84.41 287.81 84.41 294.16 84.41 300.51 89.56 305.65 95.91 305.65H108.63L106.09 307.03C100.77 310.19 98.89 316.98 101.83 322.41 104.77 327.85 111.47 330 117.02 327.29L147.37 310.87C152.95 307.84 155.04 300.87 152.03 295.28ZM202.62 295.28C203.73 293.21 205.48 291.81 207.41 290.8 225.79 271.16 212.73 248.16 212.73 248.16 212.73 241.8 201.24 225.16 212.73 225.16L224.23 236.66C235.74 248.15 235.74 282.66 235.74 282.66H258.74C261.79 282.66 264.71 283.87 266.87 286.03 269.03 288.19 270.23 291.11 270.23 294.16 270.23 297.21 269.02 300.13 266.87 302.29 264.71 304.44 261.79 305.65 258.74 305.65H246.01L248.55 307.03C252.17 308.99 254.47 312.73 254.58 316.84 254.7 320.95 252.61 324.81 249.11 326.96 245.61 329.12 241.22 329.24 237.6 327.29L207.26 310.87C204.58 309.42 202.58 306.96 201.71 304.04 200.84 301.11 201.17 297.97 202.62 295.28Z" style="fill:#ffac33"/><path d="M270.23 112.08C296.36 57.01 270.23 16.78 270.23 16.78 270.23 16.78 217.97 25.45 209.26 42.77 198.24 64.68 270.23 112.08 270.23 112.08Z" style="fill:#662113"/><path d="M281.84 125.15C281.84 218.24 253.34 311.34 177.31 311.34 101.29 311.34 72.78 218.24 72.78 125.15 72.78 32.06 119.58 28.83 177.31 28.83 235.05 28.83 281.84 32.06 281.84 125.15Z" style="fill:#662113"/><path d="M264.7 170.36C264.7 263.44 194.42 302.3 177.31 302.3 160.21 302.3 89.93 263.44 89.93 170.36 89.93 77.26 264.7 77.26 264.7 170.36Z" style="fill:#c1694f"/><path d="M84.4 112.08C58.26 57.01 84.4 16.78 84.4 16.78 84.4 16.78 136.67 25.45 145.38 42.77 156.39 64.68 84.4 112.08 84.4 112.08Z" style="fill:#662113"/><path d="M149.55 49.53C111.34 35.21 84.4 16.78 84.4 16.78 84.4 16.78 65.63 45.9 76.01 88.43 80.04 107.75 93.55 126.36 111.3 130.58 135.14 136.25 177.31 130.14 177.31 94.75 177.31 70.39 167.6 56.31 149.55 49.53ZM205.08 49.53C243.29 35.21 270.22 16.78 270.22 16.78 270.22 16.78 288.99 45.9 278.61 88.43 274.59 107.75 261.08 126.36 243.33 130.58 219.49 136.25 177.31 130.14 177.31 94.75 177.31 70.39 187.02 56.31 205.08 49.53Z" style="fill:#c1694f"/><path d="M159.98 86.09C159.98 105.23 144.47 120.74 125.33 120.74 106.19 120.74 90.68 105.23 90.68 86.09 90.68 66.95 106.19 51.44 125.33 51.44 144.47 51.44 159.98 66.95 159.98 86.09ZM263.95 86.09C263.95 105.23 248.43 120.74 229.29 120.74 210.16 120.74 194.64 105.23 194.64 86.09 194.64 66.95 210.16 51.44 229.29 51.44 248.43 51.44 263.95 66.95 263.95 86.09Z" style="fill:#ffcc4d"/><path d="M142.66 86.09C142.81 92.38 139.54 98.25 134.12 101.43 128.7 104.61 121.98 104.61 116.56 101.43 111.14 98.25 107.87 92.38 108.01 86.09 108.23 76.68 115.92 69.16 125.34 69.16 134.75 69.16 142.45 76.68 142.66 86.09ZM246.63 86.09C246.77 92.38 243.5 98.25 238.08 101.43 232.66 104.61 225.94 104.61 220.52 101.43 215.1 98.25 211.83 92.38 211.97 86.09 212.19 76.68 219.88 69.16 229.3 69.16 238.72 69.16 246.41 76.68 246.63 86.09Z" style="fill:#292f33"/><path d="M203.3 125.07C203.3 146.61 177.31 155.39 177.31 155.39 177.31 155.39 151.32 146.6 151.32 125.07 151.32 103.55 177.31 94.75 177.31 94.75 177.31 94.75 203.3 103.54 203.3 125.07Z" style="fill:#ffcc4d"/><path d="M203.3 125.07C203.3 146.61 177.31 155.39 177.31 155.39 177.31 155.39 151.32 146.6 151.32 125.07 162.15 135.9 177.31 138.07 177.31 138.07 177.31 138.07 192.47 135.9 203.3 125.07Z" style="fill:#ffac33"/></svg>
