<?xml version="1.0"?><svg viewBox="0 0 340 340" xmlns="http://www.w3.org/2000/svg"><path d="M254.38 158.39L298.13 212.72V268.27L254.38 252.78ZM151.77 156.65L108.01 210.99V266.55L151.77 251.03Z" style="fill:#3a7eb9"/><path d="M224.87 144.26L179.06 144.62C176.89 144.65 174.72 144.58 172.55 144.44L173.75 288.3C173.83 297.58 203.97 330 203.97 330 203.97 330 234.08 297.08 234 287.81L232.81 143.84C230.17 144.08 227.52 144.21 224.87 144.26Z" style="fill:#d48171"/><path d="M212.29 202.17L192.07 202.35C191.11 202.35 190.16 202.33 189.2 202.23L189.9 284.89C189.94 290.23 203.28 308.88 203.28 308.88 203.28 308.88 216.53 289.98 216.51 284.67L215.82 201.96C214.65 202.09 213.48 202.17 212.29 202.17Z" style="fill:#e9df92"/><path d="M219.61 40C207.85 38.16 195.85 38.34 184.15 40.56L151.77 87.2V274.63C156.2 274.32 160.73 274.14 165.35 274.14H243.99C247.79 274.14 251.48 274.26 255.16 274.47V91.23L219.61 40Z" style="fill:#b5d5eb"/><path d="M215.49 40.19L202.33 21.23 187.68 40.19V49.65H216.23V40.19ZM189.2 102.55H217.72V131.06H189.2ZM189.2 159.89H217.72V188.42H189.2ZM189.2 213.35H217.72V241.86H189.2ZM158.89 262.91H247.95V277.14H158.89Z" style="fill:#3a7eb9"/></svg>
